<svg width="26" height="26" viewBox="0 0 26 26" xmlns="http://www.w3.org/2000/svg">
<path fill="currentColor" fill-rule="evenodd" clip-rule="evenodd" d="M16.8377 23.5559C14.3135 24.148 11.6865 24.148 9.16228 23.5559C5.8288 22.774 3.226 20.1712 2.44408 16.8377C1.85198 14.3135 1.85198 11.6865 2.44408 9.16228C3.226 5.8288 5.82881 3.226 9.16229 2.44407C11.6865 1.85197 14.3135 1.85197 16.8377 2.44407C20.1712 3.226 22.774 5.8288 23.5559 9.16227C24.148 11.6865 24.148 14.3135 23.5559 16.8377C22.774 20.1712 20.1712 22.774 16.8377 23.5559ZM8.70554 25.5031C11.5302 26.1656 14.4698 26.1656 17.2945 25.5031C21.3675 24.5477 24.5477 21.3675 25.5031 17.2945C26.1656 14.4698 26.1656 11.5302 25.5031 8.70553C24.5477 4.63254 21.3674 1.45231 17.2945 0.496923C14.4698 -0.165645 11.5302 -0.165645 8.70555 0.496922C4.63255 1.45232 1.45232 4.63254 0.496929 8.70554C-0.165642 11.5302 -0.165643 14.4698 0.496928 17.2945C1.45232 21.3674 4.63254 24.5477 8.70554 25.5031ZM15.0404 10.3738C15.431 9.98325 15.431 9.35008 15.0404 8.95956C14.6499 8.56903 14.0168 8.56903 13.6262 8.95956L10.2929 12.2929C10.1054 12.4804 10 12.7348 10 13C10 13.2652 10.1054 13.5196 10.2929 13.7071L13.6262 17.0404C14.0167 17.431 14.6499 17.431 15.0404 17.0404C15.431 16.6499 15.431 16.0168 15.0404 15.6262L12.4142 13L15.0404 10.3738Z" fill="#121318"/>
</svg>
