<svg width="18" height="18" viewBox="0 0 18 18" fill="none" xmlns="http://www.w3.org/2000/svg">
<path d="M3.25 16.75C3.53594 16.75 3.81016 16.5803 4.01235 16.2781C4.21454 15.976 4.32812 15.5662 4.32812 15.1389V3.05556C4.32812 2.84191 4.38492 2.63701 4.48601 2.48594C4.58711 2.33487 4.72422 2.25 4.86719 2.25H15.6484C15.7914 2.25 15.9285 2.33487 16.0296 2.48594C16.1307 2.63701 16.1875 2.84191 16.1875 3.05556V15.1389C16.1875 15.5662 16.0739 15.976 15.8717 16.2781C15.6695 16.5803 15.3953 16.75 15.1094 16.75H3.25Z" stroke="white" stroke-width="1.6" stroke-linecap="round" stroke-linejoin="round"/>
<path d="M2.96875 16.75C2.47976 16.75 2.01079 16.591 1.66502 16.308C1.31925 16.0251 1.125 15.6413 1.125 15.2411V8.1875C1.125 7.08293 2.02043 6.1875 3.125 6.1875H3.8125" stroke="white" stroke-width="1.6" stroke-linecap="round" stroke-linejoin="round"/>
<path d="M13.0188 4.8374H7.64375C7.47806 4.8374 7.34375 4.97172 7.34375 5.1374V8.1374C7.34375 8.30309 7.47806 8.4374 7.64375 8.4374H13.0187C13.1844 8.4374 13.3187 8.30309 13.3187 8.1374V5.1374C13.3187 4.97172 13.1844 4.8374 13.0188 4.8374Z" stroke="white" stroke-width="1.6" stroke-linecap="round"/>
<path d="M7 11H7.5625" stroke="white" stroke-width="1.6" stroke-linecap="round" stroke-linejoin="round"/>
<path d="M7 14H7.5625" stroke="white" stroke-width="1.6" stroke-linecap="round" stroke-linejoin="round"/>
<path d="M10 11H10.5625" stroke="white" stroke-width="1.6" stroke-linecap="round" stroke-linejoin="round"/>
<path d="M10 14H10.5625" stroke="white" stroke-width="1.6" stroke-linecap="round" stroke-linejoin="round"/>
</svg>
