<svg width="88" height="88" viewBox="0 0 88 88" fill="none" xmlns="http://www.w3.org/2000/svg">
<ellipse cx="45.5" cy="26.5" rx="26.5" ry="20.5" transform="rotate(180 45.5 26.5)" fill="#FECC33"/>
<path d="M28.0536 71.1739C25.2137 67.2942 23.0436 62.9664 21.6333 58.3699" stroke="#1D2230" stroke-width="3.66667" stroke-linecap="round" stroke-linejoin="round"/>
<path d="M66.4876 58.3699C64.87 63.6482 62.2424 68.5621 58.751 72.8385" stroke="#1D2230" stroke-width="3.66667" stroke-linecap="round" stroke-linejoin="round"/>
<path d="M64.9544 43.3004C38.1731 42.3948 32.2661 23.2474 31.8994 23.0531C31.8994 23.0531 30.1871 40.8108 22.8647 40.8108" stroke="#1D2230" stroke-width="3.66667" stroke-linecap="round" stroke-linejoin="round"/>
<path d="M34.6499 48.8394V52.8727" stroke="#1D2230" stroke-width="3.66667" stroke-linecap="round"/>
<path d="M54.8164 48.8413V52.8746" stroke="#1D2230" stroke-width="3.66667" stroke-linecap="round"/>
<path d="M15.7665 58.6236C9.08386 58.6236 3.6665 53.2062 3.6665 46.5236C3.6665 39.8409 9.08386 34.4236 15.7665 34.4236L15.7665 58.6236Z" stroke="#1D2230" stroke-width="3.66667" stroke-linecap="round" stroke-linejoin="round"/>
<path d="M72.2329 34.4236C78.9156 34.4236 84.3329 39.8409 84.3329 46.5236C84.3329 53.2062 78.9156 58.6236 72.2329 58.6236V34.4236Z" stroke="#1D2230" stroke-width="3.66667" stroke-linecap="round" stroke-linejoin="round"/>
<path d="M15.7666 40.4075V33.8588C15.7666 18.266 28.4071 5.62549 43.9999 5.62549C59.5928 5.62549 72.2333 18.266 72.2333 33.8588V40.4075" stroke="#1D2230" stroke-width="3.66667" stroke-linecap="round" stroke-linejoin="round"/>
<path d="M48.6223 70.0447C52.3645 71.9011 53.175 75.9604 50.4326 79.1114C47.6901 82.2625 42.4333 83.312 38.6911 81.4557C34.9489 79.5993 34.1384 75.54 36.8809 72.389C39.6233 69.2379 44.8801 68.1884 48.6223 70.0447Z" stroke="#1D2230" stroke-width="3.66667" stroke-linecap="round" stroke-linejoin="round"/>
<path d="M13.1996 64.5552C11.3663 76.6552 21.9592 80.0798 35.3389 77.3885" stroke="#1D2230" stroke-width="3.66667" stroke-linecap="round" stroke-linejoin="round"/>
</svg>
