<svg width="88" height="88" viewBox="0 0 88 88" fill="none" xmlns="http://www.w3.org/2000/svg">
<rect x="31.9365" y="23.0094" width="29.5315" height="58.1207" rx="5.5" transform="rotate(-22 31.9365 23.0094)" fill="#FECC33"/>
<path d="M6.9668 10.2407L17.8531 13.7571C21.7589 15.0127 24.9161 17.9205 26.4881 21.7101L39.2811 52.5944" stroke="#1D2230" stroke-width="4.125" stroke-linecap="round" stroke-linejoin="round"/>
<path d="M51.8462 71.3901L77.9162 60.5735" stroke="#1D2230" stroke-width="4.125" stroke-linecap="round" stroke-linejoin="round"/>
<path d="M41.4846 60.5665C46.6768 65.7586 46.6768 74.1768 41.4846 79.3689C36.2925 84.5611 27.8743 84.5611 22.6822 79.3689C17.49 74.1768 17.49 65.7586 22.6822 60.5665C27.8743 55.3743 36.2925 55.3743 41.4846 60.5665Z" stroke="#1D2230" stroke-width="4.125" stroke-linecap="round" stroke-linejoin="round"/>
<path d="M42.3794 36.918L71.0415 25.0457L81.2187 49.6157L52.5566 61.4879L42.3794 36.918Z" stroke="#1D2230" stroke-width="4.125" stroke-linecap="round" stroke-linejoin="round"/>
<path d="M33.8994 16.4446L58.4694 6.26738L66.9501 26.7418L42.3802 36.919L33.8994 16.4446Z" stroke="#1D2230" stroke-width="4.125" stroke-linecap="round" stroke-linejoin="round"/>
<path d="M60.0979 39.1606L56.7246 30.9839" stroke="#1D2230" stroke-width="4.125" stroke-linecap="round" stroke-linejoin="round"/>
<path d="M49.574 19.5436L46.2007 11.3669" stroke="#1D2230" stroke-width="4.125" stroke-linecap="round" stroke-linejoin="round"/>
</svg>
