<svg width="88" height="88" viewBox="0 0 88 88" fill="none" xmlns="http://www.w3.org/2000/svg">
<circle cx="30" cy="47" r="30" fill="#FECC33"/>
<path d="M69.3523 18.648C72.2161 21.5119 72.2161 26.1551 69.3523 29.0189C66.4884 31.8828 61.8452 31.8828 58.9814 29.0189C56.1175 26.1551 56.1175 21.5119 58.9814 18.648C61.8452 15.7842 66.4884 15.7842 69.3523 18.648Z" stroke="#1D2230" stroke-width="3.66667" stroke-linecap="round" stroke-linejoin="round"/>
<path d="M81.5579 23.9474C81.5579 37.4737 64.1669 54.2231 64.1669 54.2231C64.1669 54.2231 46.7759 37.4737 46.7759 23.9474C46.7759 14.3426 54.5621 6.5564 64.1669 6.5564C73.7717 6.5564 81.5579 14.3426 81.5579 23.9474Z" stroke="#1D2230" stroke-width="3.66667" stroke-linecap="round" stroke-linejoin="round"/>
<path d="M7.3335 47.6667H47.6668" stroke="#1D2230" stroke-width="3.66667" stroke-linecap="round" stroke-linejoin="round"/>
<path d="M72.556 54.8276C68.6011 72.6187 50.9725 83.8352 33.1815 79.8802C15.3904 75.9253 4.17393 58.2967 8.12887 40.5057C11.4843 25.4114 24.8707 14.671 40.3335 14.6667" stroke="#1D2230" stroke-width="3.66667" stroke-linecap="round" stroke-linejoin="round"/>
<path d="M53.086 51.4104C52.3637 67.8737 46.9333 80.6667 40.3333 80.6667C33.2457 80.6667 27.5 65.8937 27.5 47.6667C27.5 29.4397 33.2457 14.6667 40.3333 14.6667" stroke="#1D2230" stroke-width="3.66667" stroke-linecap="round" stroke-linejoin="round"/>
<path d="M12.438 65.3032C28.2963 61.1709 57.219 61.9409 68.263 65.2556" stroke="#1D2230" stroke-width="3.66667" stroke-linecap="round" stroke-linejoin="round"/>
<path d="M40.334 32.8166C30.9573 33.0022 21.5921 32.0654 12.438 30.0262" stroke="#1D2230" stroke-width="3.66667" stroke-linecap="round" stroke-linejoin="round"/>
</svg>
