<svg width="88" height="88" viewBox="0 0 88 88" fill="none" xmlns="http://www.w3.org/2000/svg">
<rect x="4" y="11" width="65" height="51" rx="7.5" fill="#FECC33"/>
<path d="M48.0698 73.1976L49.5475 47.5969L68.6948 64.6543L57.1192 65.8789L48.0698 73.1976Z" stroke="#1D2230" stroke-width="3.66667" stroke-linecap="round" stroke-linejoin="round"/>
<path d="M57.1265 65.8909L61.8931 77.3675" stroke="#1D2230" stroke-width="3.66667" stroke-linecap="round" stroke-linejoin="round"/>
<path d="M46.4933 40.2237L43.6333 33.3671" stroke="#1D2230" stroke-width="3.66667" stroke-linecap="round" stroke-linejoin="round"/>
<path d="M42.2393 44.8796L35.1626 42.6429" stroke="#1D2230" stroke-width="3.66667" stroke-linecap="round" stroke-linejoin="round"/>
<path d="M43.0835 51.1132L36.7769 55.1098" stroke="#1D2230" stroke-width="3.66667" stroke-linecap="round" stroke-linejoin="round"/>
<path d="M52.7998 40.5167L56.2098 33.9167" stroke="#1D2230" stroke-width="3.66667" stroke-linecap="round" stroke-linejoin="round"/>
<path d="M56.6128 45.5042L63.8728 43.8909" stroke="#1D2230" stroke-width="3.66667" stroke-linecap="round" stroke-linejoin="round"/>
<path d="M38.0708 71.5H16.4998C12.4497 71.5 9.1665 68.2168 9.1665 64.1667V20.1667C9.1665 16.1166 12.4497 12.8334 16.4998 12.8334H71.4998C75.5499 12.8334 78.8332 16.1166 78.8332 20.1667V64.1667C78.8332 68.2168 75.5499 71.5 71.4998 71.5" stroke="#1D2230" stroke-width="3.66667" stroke-linecap="round" stroke-linejoin="round"/>
<path d="M18.9814 21.3519C19.3393 21.7098 19.3393 22.2902 18.9814 22.6482C18.6234 23.0062 18.043 23.0062 17.685 22.6482C17.327 22.2902 17.327 21.7098 17.685 21.3519C18.043 20.9939 18.6234 20.9939 18.9814 21.3519Z" stroke="#1D2230" stroke-width="3.66667" stroke-linecap="round" stroke-linejoin="round"/>
<path d="M28.1479 21.3519C28.5058 21.7098 28.5058 22.2902 28.1479 22.6482C27.7899 23.0062 27.2095 23.0062 26.8515 22.6482C26.4935 22.2902 26.4935 21.7098 26.8515 21.3519C27.2095 20.9939 27.7899 20.9939 28.1479 21.3519Z" stroke="#1D2230" stroke-width="3.66667" stroke-linecap="round" stroke-linejoin="round"/>
<path d="M37.3148 21.3519C37.6728 21.7098 37.6728 22.2902 37.3148 22.6482C36.9569 23.0062 36.3765 23.0062 36.0185 22.6482C35.6605 22.2902 35.6605 21.7098 36.0185 21.3519C36.3765 20.9939 36.9569 20.9939 37.3148 21.3519Z" stroke="#1D2230" stroke-width="3.66667" stroke-linecap="round" stroke-linejoin="round"/>
</svg>
