<svg width="18" height="18" viewBox="0 0 18 18" fill="none" xmlns="http://www.w3.org/2000/svg">
<path d="M6.50391 8.77508C7.08273 9.97041 8.04929 10.9345 9.24609 11.5102C9.33437 11.552 9.43202 11.5701 9.52942 11.5627C9.62681 11.5553 9.72061 11.5227 9.80156 11.4681L11.5594 10.2938C11.637 10.2412 11.7268 10.209 11.8202 10.2004C11.9137 10.1918 12.0078 10.207 12.0938 10.2446L15.3844 11.6579C15.4968 11.7047 15.5908 11.7872 15.6518 11.8926C15.7128 11.9981 15.7374 12.1207 15.7219 12.2415C15.6176 13.0555 15.2202 13.8037 14.6042 14.3459C13.9882 14.8882 13.1957 15.1874 12.375 15.1876C9.83887 15.1876 7.40661 14.1801 5.61329 12.3868C3.81997 10.5935 2.8125 8.16122 2.8125 5.62508C2.81268 4.80439 3.1119 4.01189 3.65416 3.39587C4.19642 2.77984 4.94456 2.38251 5.75859 2.27821C5.87942 2.26269 6.00199 2.28732 6.10745 2.3483C6.2129 2.40929 6.29538 2.50324 6.34219 2.61571L7.75547 5.91337C7.79222 5.99798 7.8076 6.09034 7.80024 6.18231C7.79288 6.27427 7.76302 6.36301 7.71328 6.44071L6.53906 8.22665C6.48679 8.30742 6.4561 8.40026 6.44995 8.49628C6.44379 8.5923 6.46237 8.68829 6.50391 8.77508V8.77508Z" stroke="white" stroke-width="1.6" stroke-linecap="round" stroke-linejoin="round"/>
</svg>
